# xmcd
#
# Track frame offsets:
#	150
#	19269
#	39689
#	55232
#	72624
#	88369
#	101185
#	117847
#	138542
#	152479
#	168771
#
# Disc length: 2564 seconds
#
# Revision: 1
# Processed by: cddbd v1.5.1PL0 Copyright (c) Steve Scherf et al.
# Submitted via: EasyCDDAExtractor 7.0.6.1
#
DISCID=9b0a020b
DTITLE=Sharyn Lee  Aussie Artist
DYEAR=1900
DGENRE=Country
TTITLE0=Country Town
TTITLE1=Not in my Heart
TTITLE2=I Need Your Love
TTITLE3=I Should Have known Better
TTITLE4=Faithless Love
TTITLE5=Price I Pay
TTITLE6=GivenEverything To Keep Our Dream Alive
TTITLE7=Forever In Your Debt
TTITLE8=Real Man
TTITLE9=Honey I Get Lonely Too
TTITLE10=Keed The Dirty Side Down
EXTD=
EXTT0=
EXTT1=
EXTT2=
EXTT3=
EXTT4=
EXTT5=
EXTT6=
EXTT7=
EXTT8=
EXTT9=
EXTT10=
PLAYORDER=
